<svg xmlns="http://www.w3.org/2000/svg" width="1600" height="900" viewBox="0 0 1600 900"><title>Airport arrivals hall</title><defs><filter id="gr" filterUnits="userSpaceOnUse" primitiveUnits="userSpaceOnUse" x="0" y="0" width="200" height="200"><feTurbulence type="fractalNoise" baseFrequency="0.85" numOctaves="3" seed="7" stitchTiles="stitch"/><feColorMatrix values="0 0 0 0 .55 0 0 0 0 .57 0 0 0 0 .54 .7 .7 .7 0 -.78"/></filter><pattern id="p-gr" patternUnits="userSpaceOnUse" width="200" height="200"><rect width="200" height="200" filter="url(#gr)"/></pattern><filter id="soft" x="-12%" y="-25%" width="124%" height="150%"><feGaussianBlur stdDeviation="4"/></filter><filter id="near" x="-10%" y="-18%" width="120%" height="136%"><feGaussianBlur stdDeviation="2.2"/></filter><filter id="bloom" x="-90%" y="-90%" width="280%" height="280%"><feGaussianBlur stdDeviation="11" result="b"/><feMerge><feMergeNode in="b"/><feMergeNode in="b"/><feMergeNode in="SourceGraphic"/></feMerge></filter><filter id="bloom-s" x="-90%" y="-90%" width="280%" height="280%"><feGaussianBlur stdDeviation="4.5" result="b"/><feMerge><feMergeNode in="b"/><feMergeNode in="SourceGraphic"/></feMerge></filter><filter id="glow" x="-80%" y="-80%" width="260%" height="260%"><feGaussianBlur stdDeviation="9"/></filter><filter id="fx-bloom-s" x="-90%" y="-90%" width="280%" height="280%"><feGaussianBlur stdDeviation="4.5" result="b"/><feMerge><feMergeNode in="b"/><feMergeNode in="SourceGraphic"/></feMerge></filter><filter id="fx-glow" x="-80%" y="-80%" width="260%" height="260%"><feGaussianBlur stdDeviation="9"/></filter><filter id="fx-soft" x="-12%" y="-25%" width="124%" height="150%"><feGaussianBlur stdDeviation="4"/></filter><linearGradient id="g-sky" x1="0" y1="0" x2="0" y2="1"><stop offset="0" stop-color="#0b1216"/><stop offset="1" stop-color="#18242a"/></linearGradient><linearGradient id="g-floor" x1="0" y1="0" x2="0" y2="1"><stop offset="0" stop-color="#1e2529"/><stop offset="1" stop-color="#0d1214"/></linearGradient><linearGradient id="g-haze" x1="0" y1="0" x2="0" y2="1"><stop offset="0" stop-color="#33505a" stop-opacity="0.6"/><stop offset="1" stop-color="#33505a" stop-opacity="0"/></linearGradient><linearGradient id="g-vl" x1="0" y1="0" x2="1" y2="0"><stop offset="0" stop-color="#04090b" stop-opacity="0.6"/><stop offset="1" stop-color="#04090b" stop-opacity="0"/></linearGradient><linearGradient id="g-vr" x1="1" y1="0" x2="0" y2="0"><stop offset="0" stop-color="#04090b" stop-opacity="0.6"/><stop offset="1" stop-color="#04090b" stop-opacity="0"/></linearGradient><linearGradient id="g-vb" x1="0" y1="1" x2="0" y2="0"><stop offset="0" stop-color="#04090b" stop-opacity="0.72"/><stop offset="1" stop-color="#04090b" stop-opacity="0"/></linearGradient><radialGradient id="g-pool"><stop offset="0" stop-color="#ffcf8f" stop-opacity="0.45"/><stop offset="0.55" stop-color="#ffcf8f" stop-opacity="0.12"/><stop offset="1" stop-color="#ffcf8f" stop-opacity="0"/></radialGradient><radialGradient id="g-pool-t"><stop offset="0" stop-color="#7fe6d6" stop-opacity="0.4"/><stop offset="1" stop-color="#7fe6d6" stop-opacity="0"/></radialGradient></defs><rect width="1600" height="320" fill="url(#g-sky)"/><rect y="320" width="1600" height="580" fill="url(#g-floor)"/><rect y="260" width="1600" height="240" fill="url(#g-haze)"/><rect width="1600" height="320" fill="#111a1f"/><rect x="90" y="40" width="120" height="14" rx="6" fill="#1d282e"/><rect x="236" y="46" width="120" height="14" rx="6" fill="#1d282e"/><rect x="382" y="52" width="120" height="14" rx="6" fill="#1d282e"/><rect x="528" y="58" width="120" height="14" rx="6" fill="#1d282e"/><rect x="674" y="64" width="120" height="14" rx="6" fill="#1d282e"/><rect x="820" y="70" width="120" height="14" rx="6" fill="#1d282e"/><rect x="966" y="76" width="120" height="14" rx="6" fill="#1d282e"/><rect x="1112" y="82" width="120" height="14" rx="6" fill="#1d282e"/><rect x="1258" y="88" width="120" height="14" rx="6" fill="#1d282e"/><rect x="1404" y="94" width="120" height="14" rx="6" fill="#1d282e"/><rect x="180" y="34" width="1240" height="9" fill="#ffeec4" opacity="0.75" filter="url(#bloom)"/><rect x="330" y="140" width="940" height="180" fill="#16222a"/><rect x="365" y="166.5" width="45" height="42" fill="#0b1418" opacity="0.85"/><rect x="365" y="241.5" width="45" height="42" fill="#0b1418" opacity="0.85"/><rect x="440" y="166.5" width="45" height="42" fill="#0b1418" opacity="0.85"/><rect x="440" y="241.5" width="45" height="42" fill="#0b1418" opacity="0.85"/><rect x="515" y="166.5" width="45" height="42" fill="#0b1418" opacity="0.85"/><rect x="515" y="241.5" width="45" height="42" fill="#0b1418" opacity="0.85"/><rect x="590" y="241.5" width="45" height="42" fill="#0b1418" opacity="0.85"/><rect x="665" y="166.5" width="45" height="42" fill="#0b1418" opacity="0.85"/><rect x="665" y="241.5" width="45" height="42" fill="#0b1418" opacity="0.85"/><rect x="815" y="166.5" width="45" height="42" fill="#0b1418" opacity="0.85"/><rect x="890" y="241.5" width="45" height="42" fill="#0b1418" opacity="0.85"/><rect x="1040" y="241.5" width="45" height="42" fill="#0b1418" opacity="0.85"/><rect x="1115" y="241.5" width="45" height="42" fill="#0b1418" opacity="0.85"/><rect x="1190" y="166.5" width="45" height="42" fill="#0b1418" opacity="0.85"/><g filter="url(#fx-bloom-s)"><rect x="590" y="166.5" width="45" height="42" fill="#8fd4e6" opacity="0.7"/><rect x="740" y="166.5" width="45" height="42" fill="#8fd4e6" opacity="0.7"/><rect x="740" y="241.5" width="45" height="42" fill="#8fd4e6" opacity="0.8"/><rect x="815" y="241.5" width="45" height="42" fill="#8fd4e6" opacity="0.6"/><rect x="890" y="166.5" width="45" height="42" fill="#8fd4e6" opacity="1"/><rect x="965" y="166.5" width="45" height="42" fill="#8fd4e6" opacity="0.9"/><rect x="965" y="241.5" width="45" height="42" fill="#8fd4e6" opacity="0.8"/><rect x="1040" y="166.5" width="45" height="42" fill="#8fd4e6" opacity="0.5"/><rect x="1115" y="166.5" width="45" height="42" fill="#8fd4e6" opacity="0.6"/><rect x="1190" y="241.5" width="45" height="42" fill="#8fd4e6" opacity="1"/></g><path d="M -700 920 L 800 320" stroke="#6b7b76" stroke-width="2" opacity="0.1" fill="none"/><path d="M -485.7 920 L 800 320" stroke="#6b7b76" stroke-width="2" opacity="0.1" fill="none"/><path d="M -271.4 920 L 800 320" stroke="#6b7b76" stroke-width="2" opacity="0.1" fill="none"/><path d="M -57.1 920 L 800 320" stroke="#6b7b76" stroke-width="2" opacity="0.1" fill="none"/><path d="M 157.1 920 L 800 320" stroke="#6b7b76" stroke-width="2" opacity="0.1" fill="none"/><path d="M 371.4 920 L 800 320" stroke="#6b7b76" stroke-width="2" opacity="0.1" fill="none"/><path d="M 585.7 920 L 800 320" stroke="#6b7b76" stroke-width="2" opacity="0.1" fill="none"/><path d="M 800 920 L 800 320" stroke="#6b7b76" stroke-width="2" opacity="0.1" fill="none"/><path d="M 1014.3 920 L 800 320" stroke="#6b7b76" stroke-width="2" opacity="0.1" fill="none"/><path d="M 1228.6 920 L 800 320" stroke="#6b7b76" stroke-width="2" opacity="0.1" fill="none"/><path d="M 1442.9 920 L 800 320" stroke="#6b7b76" stroke-width="2" opacity="0.1" fill="none"/><path d="M 1657.1 920 L 800 320" stroke="#6b7b76" stroke-width="2" opacity="0.1" fill="none"/><path d="M 1871.4 920 L 800 320" stroke="#6b7b76" stroke-width="2" opacity="0.1" fill="none"/><path d="M 2085.7 920 L 800 320" stroke="#6b7b76" stroke-width="2" opacity="0.1" fill="none"/><path d="M 2300 920 L 800 320" stroke="#6b7b76" stroke-width="2" opacity="0.1" fill="none"/><path d="M 0 327.6 L 1600 327.6" stroke="#6b7b76" stroke-width="2" opacity="0.1" fill="none"/><path d="M 0 352.6 L 1600 352.6" stroke="#6b7b76" stroke-width="2" opacity="0.1" fill="none"/><path d="M 0 396.5 L 1600 396.5" stroke="#6b7b76" stroke-width="2" opacity="0.1" fill="none"/><path d="M 0 460 L 1600 460" stroke="#6b7b76" stroke-width="2" opacity="0.1" fill="none"/><path d="M 0 543.6 L 1600 543.6" stroke="#6b7b76" stroke-width="2" opacity="0.1" fill="none"/><path d="M 0 647.9 L 1600 647.9" stroke="#6b7b76" stroke-width="2" opacity="0.1" fill="none"/><path d="M 0 773.3 L 1600 773.3" stroke="#6b7b76" stroke-width="2" opacity="0.1" fill="none"/><ellipse cx="310" cy="640" rx="120" ry="26" fill="#04090b" opacity="0.5" filter="url(#soft)"/><path d="M 250 640 L 220 580 L 220 460 L 250 520 Z" fill="#131c21"/><path d="M 250 520 L 400 520 L 370 460 L 220 460 Z" fill="#26333a"/><rect x="250" y="520" width="150" height="120" fill="#1b262c"/><rect x="262" y="486" width="126" height="44" rx="4" fill="#0f1c22"/><rect x="268" y="492" width="114" height="32" rx="3" fill="#2f7f86" opacity="0.85"/><rect x="268" y="492" width="114" height="32" fill="#7fe6d6" opacity="0.14" filter="url(#glow)"/><rect x="320" y="430" width="10" height="60" fill="#243036"/><ellipse cx="325" cy="700" rx="150" ry="46" fill="url(#g-pool-t)"/><ellipse cx="580" cy="640" rx="120" ry="26" fill="#04090b" opacity="0.5" filter="url(#soft)"/><path d="M 520 640 L 490 580 L 490 460 L 520 520 Z" fill="#131c21"/><path d="M 520 520 L 670 520 L 640 460 L 490 460 Z" fill="#26333a"/><rect x="520" y="520" width="150" height="120" fill="#1b262c"/><rect x="532" y="486" width="126" height="44" rx="4" fill="#0f1c22"/><rect x="538" y="492" width="114" height="32" rx="3" fill="#2f7f86" opacity="0.85"/><rect x="538" y="492" width="114" height="32" fill="#7fe6d6" opacity="0.14" filter="url(#glow)"/><rect x="590" y="430" width="10" height="60" fill="#243036"/><ellipse cx="595" cy="700" rx="150" ry="46" fill="url(#g-pool-t)"/><ellipse cx="850" cy="640" rx="120" ry="26" fill="#04090b" opacity="0.5" filter="url(#soft)"/><path d="M 790 640 L 760 580 L 760 460 L 790 520 Z" fill="#131c21"/><path d="M 790 520 L 940 520 L 910 460 L 760 460 Z" fill="#26333a"/><rect x="790" y="520" width="150" height="120" fill="#1b262c"/><rect x="802" y="486" width="126" height="44" rx="4" fill="#0f1c22"/><rect x="808" y="492" width="114" height="32" rx="3" fill="#2f7f86" opacity="0.85"/><rect x="808" y="492" width="114" height="32" fill="#7fe6d6" opacity="0.14" filter="url(#glow)"/><rect x="860" y="430" width="10" height="60" fill="#243036"/><ellipse cx="865" cy="700" rx="150" ry="46" fill="url(#g-pool-t)"/><ellipse cx="1120" cy="640" rx="120" ry="26" fill="#04090b" opacity="0.5" filter="url(#soft)"/><path d="M 1060 640 L 1030 580 L 1030 460 L 1060 520 Z" fill="#131c21"/><path d="M 1060 520 L 1210 520 L 1180 460 L 1030 460 Z" fill="#26333a"/><rect x="1060" y="520" width="150" height="120" fill="#1b262c"/><rect x="1072" y="486" width="126" height="44" rx="4" fill="#0f1c22"/><rect x="1078" y="492" width="114" height="32" rx="3" fill="#2f7f86" opacity="0.85"/><rect x="1078" y="492" width="114" height="32" fill="#7fe6d6" opacity="0.14" filter="url(#glow)"/><rect x="1130" y="430" width="10" height="60" fill="#243036"/><ellipse cx="1135" cy="700" rx="150" ry="46" fill="url(#g-pool-t)"/><ellipse cx="1390" cy="640" rx="120" ry="26" fill="#04090b" opacity="0.5" filter="url(#soft)"/><path d="M 1330 640 L 1300 580 L 1300 460 L 1330 520 Z" fill="#131c21"/><path d="M 1330 520 L 1480 520 L 1450 460 L 1300 460 Z" fill="#26333a"/><rect x="1330" y="520" width="150" height="120" fill="#1b262c"/><rect x="1342" y="486" width="126" height="44" rx="4" fill="#0f1c22"/><rect x="1348" y="492" width="114" height="32" rx="3" fill="#2f7f86" opacity="0.85"/><rect x="1348" y="492" width="114" height="32" fill="#7fe6d6" opacity="0.14" filter="url(#glow)"/><rect x="1400" y="430" width="10" height="60" fill="#243036"/><ellipse cx="1405" cy="700" rx="150" ry="46" fill="url(#g-pool-t)"/><path d="M 190 900 L 360.8 660" stroke="#3c4a50" stroke-width="7" opacity="0.55" fill="none"/><path d="M 440 900 L 540.8 660" stroke="#3c4a50" stroke-width="7" opacity="0.55" fill="none"/><path d="M 690 900 L 720.8 660" stroke="#3c4a50" stroke-width="7" opacity="0.55" fill="none"/><path d="M 940 900 L 900.8 660" stroke="#3c4a50" stroke-width="7" opacity="0.55" fill="none"/><path d="M 1190 900 L 1080.8 660" stroke="#3c4a50" stroke-width="7" opacity="0.55" fill="none"/><path d="M 1440 900 L 1260.8 660" stroke="#3c4a50" stroke-width="7" opacity="0.55" fill="none"/><rect width="1600" height="900" fill="url(#p-gr)" opacity="0.075"/><rect width="420" height="900" fill="url(#g-vl)"/><rect x="1180" width="420" height="900" fill="url(#g-vr)"/><rect y="620" width="1600" height="280" fill="url(#g-vb)"/></svg>