<svg xmlns="http://www.w3.org/2000/svg" width="2560" height="1440" viewBox="0 0 2560 1440">
  <defs>
    <linearGradient id="sky" x1="0" y1="0" x2="0" y2="1">
      <stop offset="0" stop-color="#0B141F"/>
      <stop offset="0.62" stop-color="#0F202B"/>
      <stop offset="1" stop-color="#153139"/>
    </linearGradient>
    <linearGradient id="emberband" x1="0" y1="0" x2="0" y2="1">
      <stop offset="0" stop-color="#6E4527" stop-opacity="0"/>
      <stop offset="0.85" stop-color="#6E4527" stop-opacity="0.34"/>
      <stop offset="1" stop-color="#6E4527" stop-opacity="0.5"/>
    </linearGradient>
  </defs>
  <rect x="0" y="0" width="2560" height="950" fill="url(#sky)"/>
  <rect x="0" y="740" width="2560" height="210" fill="url(#emberband)"/><path d="M 0 950 L 132.5 835 L 265 950 L 446 872 L 627 950 L 856.5 909 L 1086 950 L 1244 856 L 1402 950 L 1608.5 893 L 1815 950 L 1950 840 L 2085 950 L 2268.5 877 L 2452 950 L 2684 914 L 2916 950 Z" fill="#14232B" opacity="0.55"/><rect x="0" y="950" width="2560" height="490" fill="#0E171D"/>
   <rect x="0" y="950" width="2560" height="6" fill="#3E5A62" opacity="0.5"/><rect x="0" y="0" width="2560" height="950" fill="#0A1115" /><rect x="0" y="950" width="2560" height="490" fill="#0C141A" /><line x1="0" y1="950" x2="2560" y2="950" stroke="#3E5A62" stroke-width="4" /><rect x="320" y="150" width="460" height="270" fill="#0F2A2C" stroke="#517B82" stroke-width="4"/><rect x="338" y="168" width="424" height="234" fill="rgba(63,224,197,0.14)" /><line x1="338" y1="250" x2="762" y2="250" stroke="rgba(63,224,197,0.35)" stroke-width="3" /><rect x="820" y="150" width="460" height="270" fill="#0F2A2C" stroke="#517B82" stroke-width="4"/><rect x="838" y="168" width="424" height="234" fill="rgba(63,224,197,0.14)" /><line x1="838" y1="250" x2="1262" y2="250" stroke="rgba(63,224,197,0.35)" stroke-width="3" /><rect x="1320" y="150" width="460" height="270" fill="#0F2A2C" stroke="#517B82" stroke-width="4"/><rect x="1338" y="168" width="424" height="234" fill="rgba(63,224,197,0.14)" /><line x1="1338" y1="250" x2="1762" y2="250" stroke="rgba(63,224,197,0.35)" stroke-width="3" /><rect x="1820" y="150" width="460" height="270" fill="#0F2A2C" stroke="#517B82" stroke-width="4"/><rect x="1838" y="168" width="424" height="234" fill="rgba(63,224,197,0.14)" /><line x1="1838" y1="250" x2="2262" y2="250" stroke="rgba(63,224,197,0.35)" stroke-width="3" /><rect x="320" y="460" width="460" height="270" fill="#0F2A2C" stroke="#517B82" stroke-width="4"/><rect x="338" y="478" width="424" height="234" fill="rgba(63,224,197,0.14)" /><line x1="338" y1="600" x2="762" y2="600" stroke="rgba(63,224,197,0.35)" stroke-width="3" /><rect x="820" y="460" width="460" height="270" fill="#0F2A2C" stroke="#517B82" stroke-width="4"/><rect x="838" y="478" width="424" height="234" fill="rgba(63,224,197,0.14)" /><line x1="838" y1="600" x2="1262" y2="600" stroke="rgba(63,224,197,0.35)" stroke-width="3" /><rect x="1320" y="460" width="460" height="270" fill="#0F2A2C" stroke="#517B82" stroke-width="4"/><rect x="1338" y="478" width="424" height="234" fill="rgba(63,224,197,0.14)" /><line x1="1338" y1="600" x2="1762" y2="600" stroke="rgba(63,224,197,0.35)" stroke-width="3" /><rect x="1820" y="460" width="460" height="270" fill="#0F2A2C" stroke="#517B82" stroke-width="4"/><rect x="1838" y="478" width="424" height="234" fill="rgba(63,224,197,0.14)" /><line x1="1838" y1="600" x2="2262" y2="600" stroke="rgba(63,224,197,0.35)" stroke-width="3" /><rect x="320" y="790" width="1960" height="60" fill="#0F2A2C" stroke="#3E5A62" stroke-width="3"/><rect x="240" y="1040" width="2080" height="34" fill="#1E3640" stroke="#3E5A62" stroke-width="3"/><rect x="360" y="930" width="150" height="96" fill="#0F2A2C" stroke="#517B82" stroke-width="3"/><rect x="370" y="940" width="130" height="76" fill="rgba(63,224,197,0.14)" /><rect x="690" y="930" width="150" height="96" fill="#0F2A2C" stroke="#517B82" stroke-width="3"/><rect x="700" y="940" width="130" height="76" fill="rgba(63,224,197,0.14)" /><rect x="1020" y="930" width="150" height="96" fill="#0F2A2C" stroke="#517B82" stroke-width="3"/><rect x="1030" y="940" width="130" height="76" fill="rgba(63,224,197,0.14)" /><rect x="1350" y="930" width="150" height="96" fill="#0F2A2C" stroke="#517B82" stroke-width="3"/><rect x="1360" y="940" width="130" height="76" fill="rgba(63,224,197,0.14)" /><rect x="1680" y="930" width="150" height="96" fill="#0F2A2C" stroke="#517B82" stroke-width="3"/><rect x="1690" y="940" width="130" height="76" fill="rgba(63,224,197,0.14)" /><rect x="2010" y="930" width="150" height="96" fill="#0F2A2C" stroke="#517B82" stroke-width="3"/><rect x="2020" y="940" width="130" height="76" fill="rgba(63,224,197,0.14)" /><rect x="360" y="1230" width="1840" height="34" fill="#1E3640" stroke="#3E5A62" stroke-width="3"/><rect x="520" y="1120" width="150" height="96" fill="#0F2A2C" stroke="#517B82" stroke-width="3"/><rect x="530" y="1130" width="130" height="76" fill="rgba(63,224,197,0.14)" /><rect x="850" y="1120" width="150" height="96" fill="#0F2A2C" stroke="#517B82" stroke-width="3"/><rect x="860" y="1130" width="130" height="76" fill="rgba(63,224,197,0.14)" /><rect x="1180" y="1120" width="150" height="96" fill="#0F2A2C" stroke="#517B82" stroke-width="3"/><rect x="1190" y="1130" width="130" height="76" fill="rgba(63,224,197,0.14)" /><rect x="1510" y="1120" width="150" height="96" fill="#0F2A2C" stroke="#517B82" stroke-width="3"/><rect x="1520" y="1130" width="130" height="76" fill="rgba(63,224,197,0.14)" /><rect x="1840" y="1120" width="150" height="96" fill="#0F2A2C" stroke="#517B82" stroke-width="3"/><rect x="1850" y="1130" width="130" height="76" fill="rgba(63,224,197,0.14)" /><text x="1280" y="1400" font-family="ui-monospace, 'Cascadia Mono', 'Menlo', monospace" font-size="56" letter-spacing="7.840000000000001" text-anchor="middle" fill="rgba(150,192,185,0.3)">[ TARGETING CENTRE ]</text><g font-family="ui-monospace, 'Cascadia Mono', 'Menlo', monospace" font-size="40" fill="rgba(150,192,185,0.25)"><line x1="0" y1="1386" x2="0" y2="1418" stroke="rgba(150,192,185,0.25)" stroke-width="3"/><line x1="500" y1="1386" x2="500" y2="1418" stroke="rgba(150,192,185,0.25)" stroke-width="3"/><line x1="1000" y1="1386" x2="1000" y2="1418" stroke="rgba(150,192,185,0.25)" stroke-width="3"/><text x="1012" y="1412">1000</text><line x1="1500" y1="1386" x2="1500" y2="1418" stroke="rgba(150,192,185,0.25)" stroke-width="3"/><line x1="2000" y1="1386" x2="2000" y2="1418" stroke="rgba(150,192,185,0.25)" stroke-width="3"/><text x="2012" y="1412">2000</text><line x1="2500" y1="1386" x2="2500" y2="1418" stroke="rgba(150,192,185,0.25)" stroke-width="3"/></g><g font-family="ui-monospace, 'Cascadia Mono', 'Menlo', monospace" font-size="56" fill="rgba(150,192,185,0.05)" transform="rotate(-14 1280 720)" text-anchor="middle"><text x="460" y="300">PRE-VIZ PLATE · FINAL ART PENDING</text><text x="2240" y="300">PRE-VIZ PLATE · FINAL ART PENDING</text><text x="460" y="940">PRE-VIZ PLATE · FINAL ART PENDING</text><text x="2240" y="940">PRE-VIZ PLATE · FINAL ART PENDING</text><text x="460" y="1580">PRE-VIZ PLATE · FINAL ART PENDING</text><text x="2240" y="1580">PRE-VIZ PLATE · FINAL ART PENDING</text></g></svg>